# xmcd
#
# Track frame offsets:
#	150
#	18784
#	36243
#	54431
#	72832
#	85032
#	108617
#	127584
#	148526
#	162194
#	178274
#	198828
#	219451
#	237008
#
# Disc length: 3382 seconds
#
# Revision: 1
# Processed by: cddbd v1.4PL0 Copyright (c) Steve Scherf et al.
# Submitted via: audiograbber 1.80.04
#
DISCID=b30d340e
DTITLE=Tim Mcgraw - Set This Circus Down
DYEAR=2001
DGENRE=Country
TTITLE0=The Cowboy In Me
TTITLE1=Telluride
TTITLE2=You Get Used To Somebody
TTITLE3=Unbroken
TTITLE4=Things Change
TTITLE5=Angel Boy
TTITLE6=Forget About Us
TTITLE7=Take Me Away From Here
TTITLE8=Smilin '
TTITLE9=Set This Circus Down
TTITLE10=Angry All The Time
TTITLE11=Let Me Love You
TTITLE12=Grown Men Don't Cry
TTITLE13=Why We Said Goodbye
EXTD=
EXTT0=
EXTT1=
EXTT2=
EXTT3=
EXTT4=
EXTT5=
EXTT6=
EXTT7=
EXTT8=
EXTT9=
EXTT10=
EXTT11=
EXTT12=
EXTT13=
PLAYORDER=
